<svg width="2116" height="2840" viewBox="0 0 2116 2840" fill="none" xmlns="http://www.w3.org/2000/svg">
<path d="M1458.58 1204.07L1196.73 939.489C1193.26 935.98 1189.13 933.198 1184.59 931.301C1180.05 929.404 1175.18 928.43 1170.27 928.434H721.395C701.553 928.434 682.524 936.398 668.494 950.574C654.464 964.751 646.582 983.978 646.582 1004.03V1835.55C646.582 1855.6 654.464 1874.83 668.494 1889C682.524 1903.18 701.553 1911.15 721.395 1911.15H1394.71C1414.55 1911.15 1433.58 1903.18 1447.61 1889C1461.64 1874.83 1469.52 1855.6 1469.52 1835.55V1230.81C1469.52 1225.84 1468.56 1220.92 1466.68 1216.34C1464.8 1211.75 1462.05 1207.58 1458.58 1204.07ZM1196.73 1619.83C1200.21 1623.34 1202.97 1627.51 1204.85 1632.1C1206.73 1636.69 1207.7 1641.6 1207.7 1646.57C1207.7 1651.54 1206.73 1656.45 1204.85 1661.04C1202.97 1665.63 1200.21 1669.8 1196.73 1673.31C1193.26 1676.82 1189.13 1679.61 1184.59 1681.51C1180.05 1683.41 1175.18 1684.39 1170.27 1684.39C1165.35 1684.39 1160.49 1683.41 1155.95 1681.51C1151.41 1679.61 1147.28 1676.82 1143.8 1673.31L1058.05 1586.61L972.297 1673.31C968.822 1676.82 964.696 1679.61 960.155 1681.51C955.614 1683.41 950.747 1684.39 945.832 1684.39C940.917 1684.39 936.05 1683.41 931.509 1681.51C926.969 1679.61 922.843 1676.82 919.367 1673.31C915.892 1669.8 913.135 1665.63 911.254 1661.04C909.373 1656.45 908.405 1651.54 908.405 1646.57C908.405 1641.6 909.373 1636.69 911.254 1632.1C913.135 1627.51 915.892 1623.34 919.367 1619.83L1005.17 1533.18L919.367 1446.53C912.348 1439.44 908.405 1429.82 908.405 1419.79C908.405 1409.76 912.348 1400.14 919.367 1393.05C926.386 1385.96 935.906 1381.97 945.832 1381.97C955.758 1381.97 965.278 1385.96 972.297 1393.05L1058.05 1479.74L1143.8 1393.05C1147.28 1389.54 1151.41 1386.75 1155.95 1384.85C1160.49 1382.95 1165.35 1381.97 1170.27 1381.97C1175.18 1381.97 1180.05 1382.95 1184.59 1384.85C1189.13 1386.75 1193.26 1389.54 1196.73 1393.05C1200.21 1396.56 1202.97 1400.73 1204.85 1405.32C1206.73 1409.91 1207.7 1414.82 1207.7 1419.79C1207.7 1424.76 1206.73 1429.67 1204.85 1434.26C1202.97 1438.85 1200.21 1443.02 1196.73 1446.53L1110.93 1533.18L1196.73 1619.83ZM1170.27 1230.81V1022.93L1376 1230.81H1170.27Z" fill="#696969"/>
</svg>
