<svg width="587" height="587" viewBox="0 0 587 587" fill="none" xmlns="http://www.w3.org/2000/svg">
<path fill-rule="evenodd" clip-rule="evenodd" d="M293.5 66C167.855 66 66 167.855 66 293.5C66 345.005 83.088 392.483 111.949 430.623L293.5 217.629L475.051 430.623C503.912 392.483 521 345.005 521 293.5C521 167.855 419.145 66 293.5 66ZM427.916 477.068L293.5 319.371L159.084 477.068C196.752 504.705 243.2 521 293.5 521C343.8 521 390.248 504.705 427.916 477.068ZM0 293.5C0 131.404 131.404 0 293.5 0C455.596 0 587 131.404 587 293.5C587 376.362 552.619 451.25 497.432 504.579C444.66 555.574 372.716 587 293.5 587C214.284 587 142.34 555.574 89.5685 504.579C34.3812 451.25 0 376.362 0 293.5Z" fill="#ef4444"/>
</svg>
