<svg width="268" height="701" viewBox="0 0 268 701" fill="none" xmlns="http://www.w3.org/2000/svg">
<path d="M244.5 438.5L135 70L23.5 438.5L98.5 503.5L62 631L137.5 676.5L211 636L174.5 499L244.5 438.5Z" fill="#DD0031"/>
<path d="M144.586 67.1516L135.087 35.1844L125.429 67.1039L13.9286 435.604L12.0507 441.81L16.9507 446.057L87.1363 506.884L52.3833 628.758L50.2852 636.116L56.8384 640.065L132.338 685.565L137.276 688.541L142.326 685.758L215.826 645.258L222.67 641.487L220.665 633.934L185.769 502.477L251.039 446.066L255.925 441.843L254.086 435.652L144.586 67.1516Z" stroke="black" stroke-width="20"/>
<path d="M134 674.391L137.5 676.5L211 636L174.5 498.109L244.5 437.609L135 69.1094L134 72.4143L134 674.391Z" fill="#75011D"/>
<path d="M136 369.467H170.86L187.374 431H218L136.141 156L136 156.473V245.855L136.141 245.349L160.134 331.537H136V369.467Z" fill="#FAFAFA"/>
<path d="M136 369.467H101.14L84.6265 431H54L135.859 156L136 156.473V245.855L135.859 245.349L111.866 331.537H136V369.467Z" fill="#F4F4F5"/>
</svg>
